<svg width="120" height="120" viewBox="0 0 120 120" fill="none" xmlns="http://www.w3.org/2000/svg">
<path d="M95 95H25V25H95M95 15H25C22.3478 15 19.8043 16.0536 17.9289 17.9289C16.0536 19.8043 15 22.3478 15 25V95C15 97.6522 16.0536 100.196 17.9289 102.071C19.8043 103.946 22.3478 105 25 105H95C97.6522 105 100.196 103.946 102.071 102.071C103.946 100.196 105 97.6522 105 95V25C105 22.3478 103.946 19.8043 102.071 17.9289C100.196 16.0536 97.6522 15 95 15ZM82.5 81.25C82.5 73.75 67.5 70 60 70C52.5 70 37.5 73.75 37.5 81.25V85H82.5M60 61.25C62.9837 61.25 65.8452 60.0647 67.9549 57.9549C70.0647 55.8452 71.25 52.9837 71.25 50C71.25 47.0163 70.0647 44.1548 67.9549 42.045C65.8452 39.9353 62.9837 38.75 60 38.75C57.0163 38.75 54.1548 39.9353 52.0451 42.045C49.9353 44.1548 48.75 47.0163 48.75 50C48.75 52.9837 49.9353 55.8452 52.0451 57.9549C54.1548 60.0647 57.0163 61.25 60 61.25Z" fill="#0D8964"/>
</svg>
