<svg width="120" height="120" viewBox="0 0 120 120" fill="none" xmlns="http://www.w3.org/2000/svg">
<path d="M97.5 45H67.5V15H22.5V105H97.5V45ZM94.395 37.5L75 18.105V37.5H94.395ZM18.75 7.5H75L105 37.5V108.75C105 109.745 104.605 110.698 103.902 111.402C103.198 112.105 102.245 112.5 101.25 112.5H18.75C17.7554 112.5 16.8016 112.105 16.0984 111.402C15.3951 110.698 15 109.745 15 108.75V11.25C15 10.2554 15.3951 9.30161 16.0984 8.59835C16.8016 7.89509 17.7554 7.5 18.75 7.5ZM37.5 60H82.5V67.5H37.5V60ZM37.5 37.5H56.25V45H37.5V37.5ZM37.5 82.5H82.5V90H37.5V82.5Z" fill="#0D8964"/>
</svg>
