<svg width="88" height="88" viewBox="0 0 88 88" fill="none" xmlns="http://www.w3.org/2000/svg">
<g filter="url(#filter0_d_411_14)">
<g clip-path="url(#clip0_411_14)">
<path d="M62 6.66669H32.6666C20.5336 6.66669 10.6666 16.5337 10.6666 28.6667V76.3334C10.6666 77.3058 11.0529 78.2384 11.7406 78.9261C12.4282 79.6137 13.3608 80 14.3333 80H62C74.133 80 84 70.133 84 58V28.6667C84 16.5337 74.133 6.66669 62 6.66669ZM36.3296 61.6667H29V54.337L49.2766 34.0897L56.6063 41.4194L36.3296 61.6667ZM60.064 37.9617L52.7343 30.632L58.3223 25.0477L65.652 32.3774L60.064 37.9617Z" fill="#0D8964"/>
</g>
</g>
<defs>
<filter id="filter0_d_411_14" x="0" y="0" width="88" height="88" filterUnits="userSpaceOnUse" color-interpolation-filters="sRGB">
<feFlood flood-opacity="0" result="BackgroundImageFix"/>
<feColorMatrix in="SourceAlpha" type="matrix" values="0 0 0 0 0 0 0 0 0 0 0 0 0 0 0 0 0 0 127 0" result="hardAlpha"/>
<feOffset dy="4"/>
<feGaussianBlur stdDeviation="2"/>
<feComposite in2="hardAlpha" operator="out"/>
<feColorMatrix type="matrix" values="0 0 0 0 0 0 0 0 0 0 0 0 0 0 0 0 0 0 0.25 0"/>
<feBlend mode="normal" in2="BackgroundImageFix" result="effect1_dropShadow_411_14"/>
<feBlend mode="normal" in="SourceGraphic" in2="effect1_dropShadow_411_14" result="shape"/>
</filter>
<clipPath id="clip0_411_14">
<rect width="80" height="80" fill="white" transform="translate(4)"/>
</clipPath>
</defs>
</svg>
