<svg width="119" height="119" viewBox="0 0 119 119" fill="none" xmlns="http://www.w3.org/2000/svg">
<g clip-path="url(#clip0_216_2)">
<path d="M105.778 19.8333H13.2222C11.4688 19.8333 9.78726 20.5299 8.54743 21.7697C7.30761 23.0095 6.61108 24.6911 6.61108 26.4445V92.5556C6.61108 94.3089 7.30761 95.9905 8.54743 97.2303C9.78726 98.4701 11.4688 99.1667 13.2222 99.1667H105.778C107.531 99.1667 109.213 98.4701 110.453 97.2303C111.692 95.9905 112.389 94.3089 112.389 92.5556V26.4445C112.389 24.6911 111.692 23.0095 110.453 21.7697C109.213 20.5299 107.531 19.8333 105.778 19.8333ZM100.687 92.5556H18.7094L41.8483 68.6233L37.0883 64.0286L13.2222 88.7211V31.4689L54.3103 72.3586C55.5489 73.5899 57.2245 74.2811 58.9711 74.2811C60.7176 74.2811 62.3932 73.5899 63.6319 72.3586L105.778 30.4442V88.2914L81.4489 63.9625L76.788 68.6233L100.687 92.5556ZM17.5525 26.4445H100.423L58.9711 67.6647L17.5525 26.4445Z" fill="#0D8964"/>
</g>
<defs>
<clipPath id="clip0_216_2">
<rect width="119" height="119" fill="white"/>
</clipPath>
</defs>
</svg>
