<svg width="120" height="120" viewBox="0 0 120 120" fill="none" xmlns="http://www.w3.org/2000/svg">
<path d="M110.625 18.75H9.375C6.2684 18.75 3.75 21.2684 3.75 24.375V95.625C3.75 98.7316 6.2684 101.25 9.375 101.25H110.625C113.732 101.25 116.25 98.7316 116.25 95.625V24.375C116.25 21.2684 113.732 18.75 110.625 18.75Z" fill="#B4ACBC"/>
<path d="M108.75 26.25H11.25C9.17893 26.25 7.5 27.9289 7.5 30V90C7.5 92.0711 9.17893 93.75 11.25 93.75H108.75C110.821 93.75 112.5 92.0711 112.5 90V30C112.5 27.9289 110.821 26.25 108.75 26.25Z" fill="#0D8964"/>
<path d="M112.5 87.75L63.8587 58.5675C62.6931 57.8681 61.3593 57.4987 60 57.4987C58.6407 57.4987 57.3069 57.8681 56.1413 58.5675L7.5 87.75V93.75C7.5 94.7445 7.89509 95.6984 8.59835 96.4016C9.30161 97.1049 10.2554 97.5 11.25 97.5H108.75C109.745 97.5 110.698 97.1049 111.402 96.4016C112.105 95.6984 112.5 94.7445 112.5 93.75V87.75Z" fill="#0D8964"/>
<path d="M7.5 36.6225V30H112.5V36.6225L65.79 64.65C64.0411 65.6998 62.0398 66.2544 60 66.2544C57.9602 66.2544 55.9589 65.6998 54.21 64.65L7.5 36.6225Z" fill="#998EA4"/>
<path d="M7.5 32.25V26.25C7.5 25.2554 7.89509 24.3016 8.59835 23.5984C9.30161 22.8951 10.2554 22.5 11.25 22.5H108.75C109.745 22.5 110.698 22.8951 111.402 23.5984C112.105 24.3016 112.5 25.2554 112.5 26.25V32.25L63.8587 61.4362C62.6931 62.1356 61.3593 62.5051 60 62.5051C58.6407 62.5051 57.3069 62.1356 56.1412 61.4362L7.5 32.25Z" fill="#0ACF83"/>
<path d="M60 86.25C66.9619 86.25 73.6387 83.4844 78.5616 78.5616C83.4844 73.6387 86.25 66.9619 86.25 60C86.25 53.0381 83.4844 46.3613 78.5616 41.4384C73.6387 36.5156 66.9619 33.75 60 33.75C53.0381 33.75 46.3613 36.5156 41.4384 41.4384C36.5156 46.3613 33.75 53.0381 33.75 60C33.75 66.9619 36.5156 73.6387 41.4384 78.5616C46.3613 83.4844 53.0381 86.25 60 86.25Z" fill="#00A6ED"/>
<path d="M60 43.1251C55.4625 43.0501 51.15 44.7751 47.925 48.0001C44.6625 51.1876 42.9 55.4626 42.9 60.0001C42.9 69.3001 50.475 76.8751 59.775 76.8751C60.2425 76.8751 60.6908 76.6894 61.0213 76.3588C61.3518 76.0283 61.5375 75.58 61.5375 75.1126C61.5375 74.6451 61.3518 74.1968 61.0213 73.8663C60.6908 73.5358 60.2425 73.3501 59.775 73.3501C52.425 73.3501 46.425 67.3501 46.425 60.0001C46.425 56.4001 47.85 53.0251 50.4 50.5126C52.95 48.0001 56.3625 46.6501 59.9625 46.6501C67.2 46.7626 73.125 52.8376 73.125 60.2251V63.2626C73.125 63.9289 72.8603 64.568 72.3891 65.0392C71.9179 65.5103 71.2789 65.7751 70.6125 65.7751C69.9462 65.7751 69.3071 65.5103 68.8359 65.0392C68.3647 64.568 68.1 63.9289 68.1 63.2626V51.7126C68.1 51.2451 67.9143 50.7968 67.5838 50.4663C67.2533 50.1357 66.805 49.9501 66.3375 49.9501C65.3625 49.9501 64.5 50.7376 64.5 51.7126V52.0501C62.85 50.7376 60.7875 49.9126 58.5 49.9126C53.25 49.9126 48.975 54.1876 48.975 59.4376C48.975 64.6876 53.25 68.9626 58.5 68.9626C61.125 68.9626 63.525 67.8751 65.25 66.1501C66.3 68.0251 68.2875 69.3001 70.575 69.3001C73.9125 69.3001 76.65 66.5626 76.65 63.2251V60.1876C76.65 50.9251 69.1875 43.2376 60 43.1251ZM58.5375 65.4751C55.2375 65.4751 52.5375 62.7751 52.5375 59.4751C52.5375 56.1751 55.2375 53.4751 58.5375 53.4751C61.8375 53.4751 64.5375 56.1751 64.5375 59.4751C64.5375 62.7751 61.8375 65.4751 58.5375 65.4751Z" fill="#F4F4F4"/>
</svg>
