<svg width="100" height="100" viewBox="0 0 100 100" fill="none" xmlns="http://www.w3.org/2000/svg">
<path d="M69.1251 76.3687L58.6251 51.8469C57.5939 49.4469 56.7501 45.3469 56.7501 42.7344C56.7501 40.1219 58.3532 37.9844 60.3126 37.9844C62.272 37.9844 63.8751 36.3781 63.8751 34.4219C63.8751 32.4656 61.7376 30.8594 59.1251 30.8594H37.7501C35.1376 30.8594 33.0001 32.4594 33.0001 34.4219C33.0001 36.3844 34.6032 37.9844 36.5626 37.9844C38.522 37.9844 40.1251 40.1219 40.1251 42.7344C40.1251 45.3469 39.2814 49.4469 38.2501 51.85L27.7501 76.375C26.7189 78.775 25.8751 81.8125 25.8751 83.1156C25.8751 84.4187 26.9439 86.5625 28.2501 87.8656C29.5564 89.1687 32.7626 90.2406 35.3751 90.2406H61.5001C64.1095 90.2406 67.3126 89.1781 68.6251 87.8656C69.9376 86.5531 71.0001 84.4219 71.0001 83.1156C71.0001 81.8094 70.1564 78.7719 69.1251 76.375V76.3687ZM51.822 23.8281C51.822 24.7257 52.1786 25.5865 52.8133 26.2212C53.448 26.8559 54.3088 27.2125 55.2064 27.2125C56.104 27.2125 56.9648 26.8559 57.5995 26.2212C58.2342 25.5865 58.5907 24.7257 58.5907 23.8281C58.5903 22.9305 58.2334 22.0699 57.5984 21.4355C56.9634 20.8011 56.1024 20.4449 55.2048 20.4453C54.3072 20.4457 53.4465 20.8027 52.8121 21.4377C52.1777 22.0727 51.8216 22.9305 51.822 23.8281ZM42.7126 24.35C43.127 24.35 43.5244 24.1854 43.8175 23.8923C44.1105 23.5993 44.2751 23.2019 44.2751 22.7875C44.2751 22.3731 44.1105 21.9757 43.8175 21.6826C43.5244 21.3896 43.127 21.225 42.7126 21.225C42.2982 21.225 41.9008 21.3896 41.6078 21.6826C41.3147 21.9757 41.1501 22.3731 41.1501 22.7875C41.1501 23.2019 41.3147 23.5993 41.6078 23.8923C41.9008 24.1854 42.2982 24.35 42.7126 24.35ZM48.7032 16.5375C49.3734 16.5708 50.0433 16.4675 50.6723 16.2338C51.3013 16.0002 51.8762 15.6411 52.3622 15.1784C52.8481 14.7157 53.2349 14.1591 53.499 13.5423C53.7632 12.9255 53.8992 12.2614 53.8988 11.5905C53.8983 10.9195 53.7615 10.2556 53.4966 9.63912C53.2316 9.02266 52.8442 8.4665 52.3576 8.00442C51.8711 7.54234 51.2957 7.184 50.6665 6.95116C50.0372 6.71833 49.3671 6.61586 48.697 6.64999C47.4393 6.7283 46.2589 7.28332 45.3962 8.20189C44.5336 9.12047 44.0538 10.3334 44.0546 11.5936C44.0554 12.8537 44.5368 14.066 45.4005 14.9835C46.2643 15.901 47.4455 16.4545 48.7032 16.5312V16.5375Z" fill="#0D8964"/>
</svg>
