<svg width="80" height="80" viewBox="0 0 80 80" fill="none" xmlns="http://www.w3.org/2000/svg">
<path fill-rule="evenodd" clip-rule="evenodd" d="M11.1583 36.98C14.2899 33.435 19.0416 29.375 25.1433 26.61C21.8262 30.2801 19.9928 35.053 19.9999 40C19.9999 45.15 21.9466 49.845 25.1433 53.39C19.0433 50.625 14.2899 46.565 11.1583 43.02C10.4123 42.191 9.99959 41.1152 9.99959 40C9.99959 38.8848 10.4123 37.809 11.1583 36.98ZM8.65995 34.7733C14.3399 28.3433 25.1349 20.155 39.7033 20.0017L39.9999 20H40.1166C54.8933 20 65.8383 28.2833 71.5716 34.7733C72.8555 36.2116 73.5652 38.0721 73.5652 40C73.5652 41.9279 72.8555 43.7884 71.5716 45.2267C65.8383 51.7167 54.8933 60 40.1166 60H39.9999L39.7033 59.9983C25.1366 59.845 14.3399 51.6567 8.65995 45.2267C7.37602 43.7884 6.66638 41.9279 6.66638 40C6.66638 38.0721 7.37602 36.2116 8.65995 34.7733ZM40.0466 23.3333L39.7449 23.335C30.6566 23.4717 23.3333 30.88 23.3333 40C23.3333 49.12 30.6583 56.5283 39.7449 56.665L40.0466 56.6667C49.2299 56.6417 56.6666 49.1883 56.6666 40C56.6666 30.8117 49.2299 23.3583 40.0466 23.3333ZM60 40C60 45.2333 57.9883 50 54.6966 53.565C60.9866 50.7983 65.875 46.64 69.0733 43.02C69.8192 42.191 70.232 41.1152 70.232 40C70.232 38.8848 69.8192 37.809 69.0733 36.98C65.875 33.36 60.9866 29.2017 54.6966 26.435C58.1126 30.1256 60.007 34.9712 60 40ZM40.1166 50C41.8062 50.0004 43.4684 49.5726 44.948 48.7567C46.4275 47.9408 47.6762 46.7632 48.5775 45.334C49.4788 43.9048 50.0032 42.2706 50.1018 40.5838C50.2005 38.8971 49.8701 37.2128 49.1416 35.6883C48.8341 36.0067 48.4663 36.2606 48.0596 36.4353C47.6529 36.61 47.2155 36.702 46.7729 36.7058C46.3304 36.7097 45.8914 36.6253 45.4818 36.4577C45.0721 36.2901 44.6999 36.0426 44.387 35.7296C44.074 35.4167 43.8265 35.0445 43.6589 34.6348C43.4913 34.2252 43.4069 33.7863 43.4108 33.3437C43.4146 32.9011 43.5066 32.4637 43.6813 32.057C43.856 31.6503 44.1099 31.2825 44.4283 30.975C43.074 30.3287 41.5916 29.9955 40.091 30C38.5904 30.0046 37.11 30.3468 35.7597 31.0014C34.4094 31.6559 33.2236 32.6059 32.2904 33.781C31.3572 34.9562 30.7004 36.3262 30.3687 37.7897C30.037 39.2532 30.039 40.7726 30.3744 42.2353C30.7098 43.6979 31.3701 45.0663 32.3064 46.239C33.2426 47.4118 34.4308 48.3587 35.7828 49.0098C37.1348 49.6609 38.616 49.9993 40.1166 50Z" fill="#0D8964"/>
</svg>
