<svg width="120" height="120" viewBox="0 0 120 120" fill="none" xmlns="http://www.w3.org/2000/svg">
<path d="M82.5 101.925L72.7875 92.2125L67.5 97.5L82.5 112.5L112.5 82.5L107.213 77.2125L82.5 101.925ZM33.75 63.75H60V71.25H33.75V63.75ZM33.75 45H78.75V52.5H33.75V45ZM33.75 26.25H78.75V33.75H33.75V26.25Z" fill="#0D8964"/>
<path d="M60 112.5H22.5C18.3637 112.5 15 109.136 15 105V15C15 10.8637 18.3637 7.5 22.5 7.5H90C94.1363 7.5 97.5 10.8637 97.5 15V71.25H90V15H22.5V105H60V112.5Z" fill="#0D8964"/>
</svg>
