<svg width="120" height="120" viewBox="0 0 120 120" fill="none" xmlns="http://www.w3.org/2000/svg">
<rect width="120" height="120" fill="white"/>
<path d="M62.295 8.30259C61.6296 7.78381 60.81 7.50208 59.9663 7.50208C59.1225 7.50208 58.3029 7.78381 57.6375 8.30259L3.75 50.3213L8.41125 56.2163L15 51.0788V97.5001C15.004 99.488 15.7954 101.393 17.2011 102.799C18.6067 104.205 20.5121 104.996 22.5 105H97.5C99.4879 104.996 101.393 104.205 102.799 102.799C104.205 101.393 104.996 99.488 105 97.5001V51.1126L111.589 56.2501L116.25 50.3551L62.295 8.30259ZM67.5 97.5001H52.5V67.5001H67.5V97.5001ZM75 97.5001V67.5001C74.998 65.5116 74.2072 63.6051 72.8011 62.199C71.395 60.7929 69.4885 60.0021 67.5 60.0001H52.5C50.5115 60.0021 48.605 60.7929 47.1989 62.199C45.7928 63.6051 45.002 65.5116 45 67.5001V97.5001H22.5V45.2326L60 16.0201L97.5 45.2701V97.5001H75Z" fill="#097555"/>
</svg>
