<svg width="120" height="120" viewBox="0 0 120 120" fill="none" xmlns="http://www.w3.org/2000/svg">
<path d="M103.226 16.1888C91.6387 4.60129 72.7762 4.60129 61.1887 16.1888L46.1887 31.1888C45.3375 32.0513 44.55 32.9588 43.8262 33.8925C48.5366 32.7058 53.446 32.5383 58.2262 33.4013C59.1937 33.57 60.1575 33.7838 61.1137 34.0388L61.1475 34.2713L70.2262 25.1925C71.8007 23.6142 73.6711 22.362 75.7302 21.5076C77.7894 20.6532 79.9969 20.2134 82.2262 20.2134C84.4556 20.2134 86.6631 20.6532 88.7222 21.5076C90.7814 22.362 92.6518 23.6142 94.2262 25.1925C100.826 31.83 100.864 42.5925 94.2262 49.1925L79.2262 64.1925C76.3762 67.0425 72.7387 68.58 69.0262 68.9925C64.1137 69.5175 58.9762 67.98 55.2262 64.1925C52.7782 61.7235 51.1539 58.5575 50.5762 55.1288C47.9071 55.4557 45.4207 56.6553 43.5037 58.5413L39.4312 62.6175C40.9093 66.5902 43.227 70.1973 46.2262 73.1925C50.5168 77.4914 56.0307 80.3597 62.0137 81.405C66.73 82.227 71.5746 81.9069 76.1418 80.4715C80.7089 79.0361 84.8656 76.5273 88.2637 73.155L103.264 58.155C114.814 46.6425 114.814 27.7763 103.226 16.1888Z" fill="black"/>
<path d="M73.2262 88.2676C74.0922 87.3916 74.9025 86.4623 75.6525 85.4851C70.9297 86.6753 66.0093 86.858 61.2112 86.0213C60.1635 85.8374 59.1211 85.6046 58.095 85.3238L49.1887 94.2301C47.6142 95.8084 45.7439 97.0606 43.6847 97.915C41.6256 98.7694 39.4181 99.2092 37.1887 99.2092C34.9594 99.2092 32.7519 98.7694 30.6927 97.915C28.6336 97.0606 26.7632 95.8084 25.1887 94.2301C23.6104 92.6556 22.3582 90.7852 21.5038 88.7261C20.6494 86.6669 20.2096 84.4595 20.2096 82.2301C20.2096 80.0007 20.6494 77.7933 21.5038 75.7341C22.3582 73.675 23.6104 71.8046 25.1887 70.2301L40.1887 55.2301C43.0387 52.3801 46.6762 50.8426 50.3887 50.4301C55.3012 49.9051 60.4387 51.4426 64.1887 55.2301C66.6389 57.6972 68.2658 60.8619 68.8462 64.2901C71.514 63.9622 73.9989 62.7626 75.915 60.8776L79.9875 56.8013C78.5085 52.8282 76.1895 49.2211 73.1887 46.2263C68.8982 41.9274 63.3843 39.0591 57.4012 38.0138C51.5586 36.9614 45.5345 37.6932 40.1137 40.1138C36.8887 41.5388 33.8512 43.5638 31.1887 46.2263L16.1887 61.2263C4.60123 72.8138 4.60123 91.6763 16.1887 103.264C27.7762 114.851 46.6387 114.851 58.2262 103.264L73.2262 88.2676Z" fill="black"/>
</svg>
