<svg width="121" height="107" viewBox="0 0 121 107" fill="none" xmlns="http://www.w3.org/2000/svg">
<g clip-path="url(#clip0_215_4)">
<path d="M46.5385 0.771637C21.3059 0.771637 0.872589 18.8407 0.872589 41.1538C0.872589 63.4669 21.3059 81.5361 46.5385 81.5361C57.1914 81.5361 66.9899 78.2084 74.7524 72.7909L78.8245 76.3918C77.1157 79.2372 77.7156 82.8703 80.4243 85.2656L101.803 104.299C105.13 107.241 110.547 107.241 113.874 104.299L117.946 100.698C121.273 97.7565 121.273 92.9659 117.946 90.024L96.4219 71.119C93.695 68.7076 89.6047 68.2897 86.387 69.8329L82.3149 66.232C88.4776 59.3516 92.2043 50.6224 92.2043 41.1538C92.2043 18.8407 71.771 0.771637 46.5385 0.771637ZM46.5385 8.23077C67.099 8.23077 83.7692 22.9722 83.7692 41.1538C83.7692 59.3355 67.099 74.0769 46.5385 74.0769C25.9779 74.0769 9.30768 59.3355 9.30768 41.1538C9.30768 22.9722 25.9779 8.23077 46.5385 8.23077ZM22.9784 30.7368C20.5787 34.177 19.1971 38.2281 19.1971 42.5685C19.1971 55.0272 30.559 65.0745 44.6478 65.0745C50.0834 65.0745 55.1917 63.5152 59.3365 60.9591C58.2276 61.0717 56.9914 61.0877 55.8461 61.0877C37.6307 61.0877 22.9784 48.1307 22.9784 32.0228C22.9784 31.5888 22.9602 31.1708 22.9784 30.7368Z" fill="#0D8973"/>
</g>
<defs>
<clipPath id="clip0_215_4">
<rect width="121" height="107" fill="white"/>
</clipPath>
</defs>
</svg>
