<svg width="100" height="100" viewBox="0 0 100 100" fill="none" xmlns="http://www.w3.org/2000/svg">
<path d="M50 6.25C61.6032 6.25 72.7312 10.8594 80.9359 19.0641C89.1406 27.2688 93.75 38.3968 93.75 50C93.75 61.6032 89.1406 72.7312 80.9359 80.9359C72.7312 89.1406 61.6032 93.75 50 93.75C38.3968 93.75 27.2688 89.1406 19.0641 80.9359C10.8594 72.7312 6.25 61.6032 6.25 50C6.25 38.3968 10.8594 27.2688 19.0641 19.0641C27.2688 10.8594 38.3968 6.25 50 6.25ZM50 25C49.2065 24.9993 48.4216 25.1641 47.6954 25.4839C46.9692 25.8037 46.3176 26.2715 45.7824 26.8573C45.2472 27.4431 44.84 28.1341 44.5869 28.8862C44.3338 29.6382 44.2404 30.4348 44.3125 31.225L46.5937 56.2625C46.6822 57.1043 47.0792 57.8835 47.7082 58.4498C48.3372 59.0162 49.1536 59.3296 50 59.3296C50.8464 59.3296 51.6628 59.0162 52.2918 58.4498C52.9208 57.8835 53.3178 57.1043 53.4063 56.2625L55.6813 31.225C55.7533 30.4353 55.66 29.6393 55.4073 28.8876C55.1546 28.136 54.748 27.4453 54.2134 26.8596C53.6789 26.2739 53.0281 25.806 52.3027 25.4858C51.5772 25.1657 50.793 25.0002 50 25ZM50 75C51.3261 75 52.5979 74.4732 53.5355 73.5355C54.4732 72.5978 55 71.3261 55 70C55 68.6739 54.4732 67.4021 53.5355 66.4645C52.5979 65.5268 51.3261 65 50 65C48.6739 65 47.4021 65.5268 46.4645 66.4645C45.5268 67.4021 45 68.6739 45 70C45 71.3261 45.5268 72.5978 46.4645 73.5355C47.4021 74.4732 48.6739 75 50 75Z" fill="#F23501"/>
</svg>
